#!OML:ASF I:\Actors\actors\Patient Classification 1\Patient 1\Session 1\Subject1.ASF
:FULLY-SPECIFIED
:DEGREES
705
root -0.31378 17.562 8.09155 5.74159 -6.68693 -8.49092
lowerback 0.428401 3.20892 6.13338
upperback -9.22977 4.83568 1.94937
thorax -9.72598 1.96393 -1.74309
lowerneck -13.3063 -0.597016 3.04373
upperneck 19.6526 -2.63819 5.18501
head 8.36142 -0.489757 0.937456
rclavicle -4.52235e-015 2.28602e-014
rhumerus 23.6275 66.4795 -39.1707
rradius 85.0389
rwrist -23.2277
rhand 15.3035 -62.6127
rfingers 7.12502
rthumb 40.1372 -807.797
lclavicle -4.52235e-015 2.28602e-014
lhumerus -32.1717 -45.9206 93.2958
lradius 102.598
lwrist 45.9552
lhand -45.4501 -2.11077
lfingers 7.12502
lthumb -18.2167 27.0562
rfemur 0.803429 25.3601 24.3861
rtibia 1.63857
rfoot -12.5533 -18.0586
rtoes -3.82628
lfemur 11.5124 -39.1518 -17.3514
ltibia -4.25626
lfoot -18.9311 50.9281
ltoes 8.68007
706
root -0.310487 17.5622 8.08457 5.80217 -7.39207 -8.46226
lowerback 0.487465 3.3718 6.20291
upperback -9.23162 5.06361 1.96171
thorax -9.74393 2.06903 -1.7888
lowerneck -13.4048 -0.469513 3.2257
upperneck 19.8061 -2.50971 5.14945
head 8.42818 -0.412376 0.910552
rclavicle -1.5207e-014 7.35503e-015
rhumerus 21.2421 62.6137 -43.6796
rradius 83.7429
rwrist -20.6959
rhand 10.637 -63.4983
rfingers 7.12502
rthumb 35.7302 -809.881
lclavicle -1.5207e-014 7.35503e-015
lhumerus -32.789 -46.3961 93.458
lradius 102.625
lwrist 45.9507
lhand -45.4079 -2.38748
lfingers 7.12502
lthumb -18.1761 26.7833
rfemur 0.565008 25.3562 24.2157
rtibia 1.71652
rfoot -12.221 -17.3953
rtoes -4.40062
lfemur 11.8114 -39.1889 -17.6884
ltibia -4.31404
lfoot -19.7694 51.5044
ltoes 9.64832
707
root -0.306817 17.5642 8.07708 5.95143 -7.92715 -8.43768
lowerback 0.553995 3.46874 6.28292
upperback -9.28072 5.20726 1.96962
thorax -9.82437 2.12882 -1.84074
lowerneck -13.3495 -0.344343 3.51978
upperneck 19.665 -2.34311 4.93385
head 8.36316 -0.339269 0.807242
rclavicle -2.48481e-015 5.56597e-015
rhumerus 19.2743 58.3502 -47.8917
rradius 83.9965
rwrist -18.6694
rhand 10.3504 -64.4458
rfingers 7.12502
rthumb 35.4586 -989.107
lclavicle -2.48481e-015 5.56597e-015
lhumerus -33.5917 -46.6833 93.7195
lradius 102.639
lwrist 45.8986
lhand -45.2663 -2.83908
lfingers 7.12502
lthumb -18.0398 26.3443
rfemur 0.276086 25.3807 24.0376
rtibia 1.74632
rfoot -11.9956 -16.9499
rtoes -4.86321
lfemur 11.864 -39.1525 -17.8134
ltibia -4.39876
lfoot -20.1902 51.931
ltoes 10.1089
708
root -0.303945 17.5675 8.07018 6.20823 -8.20404 -8.40709
lowerback 0.586139 3.4428 6.30944
upperback -9.38287 5.18683 2.02088
thorax -9.96453 2.11199 -1.80449
lowerneck -13.0654 -0.182217 3.78803
upperneck 19.0296 -2.0276 4.49061
head 8.08641 -0.239899 0.646039
rclavicle -7.05686e-015 -1.74931e-014
rhumerus 17.8753 54.0273 -51.5727
rradius 86.3133
rwrist -19.7534
rhand 9.8615 -63.1311
rfingers 7.12502
rthumb 34.995 -809.688
lclavicle -7.05686e-015 -1.74931e-014
lhumerus -34.3455 -46.606 93.9663
lradius 102.613
lwrist 45.7776
lhand -45.1159 -2.57459
lfingers 7.12502
lthumb -17.8952 26.6221
rfemur -0.0655245 25.4766 23.8311
rtibia 1.69419
rfoot -11.8803 -16.8078
rtoes -4.90924
lfemur 11.631 -39.2168 -17.7422
ltibia -4.44421
lfoot -20.4048 52.2447
ltoes 10.2851
709
root -0.301305 17.573 8.06545 6.54914 -8.27724 -8.32511
lowerback 0.549394 3.31742 6.23912
upperback -9.51567 5.02689 2.12216
thorax -10.1201 2.03702 -1.64729
lowerneck -12.8429 0.0592341 4.08072
upperneck 18.6867 -1.65856 4.17752
head 7.92482 -0.0885829 0.531526
rclavicle 4.05521e-014 7.65321e-015
rhumerus 17.16 50.4825 -54.2948
rradius 89.5447
rwrist -19.8991
rhand 8.39026 -59.4682
rfingers 7.12502
rthumb 33.598 -806.34
lclavicle 4.05521e-014 7.65321e-015
lhumerus -34.9903 -46.1697 94.1402
lradius 102.631
lwrist 45.5055
lhand -44.8436 -1.40298
lfingers 7.12502
lthumb -17.6331 27.8174
rfemur -0.456193 25.7416 23.5559
rtibia 1.60763
rfoot -11.8705 -17.0039
rtoes -4.7436
lfemur 11.2314 -39.5819 -17.6667
ltibia -4.38726
lfoot -20.93 52.5711
ltoes 10.8169
710
root -0.303851 17.5817 8.06406 6.92723 -8.20241 -8.0838
lowerback 0.335606 3.14715 5.92997
upperback -9.6395 4.77444 2.20587
thorax -10.1777 1.94092 -1.35875
lowerneck -12.5403 0.294787 4.41
upperneck 18.2681 -1.28162 3.78669
head 7.72599 0.0591578 0.385362
rclavicle -3.37188e-014 -1.70955e-014
rhumerus 17.0703 47.8502 -55.9687
rradius 93.3078
rwrist -19.8256
rhand 7.37048 -55.3405
rfingers 7.12502
rthumb 32.6283 -802.418
lclavicle -3.37188e-014 -1.70955e-014
lhumerus -35.4961 -45.6081 94.2382
lradius 102.617
lwrist 45.3588
lhand -44.7832 -0.609934
lfingers 7.12502
lthumb -17.5751 28.6157
rfemur -0.88577 26.2072 23.1096
rtibia 1.52935
rfoot -11.9663 -17.548
rtoes -4.40356
lfemur 10.6052 -39.8578 -17.555
ltibia -4.30043
lfoot -21.1833 52.6594
ltoes 11.1516
711
root -0.312229 17.5905 8.06638 7.26456 -7.93696 -7.71011
lowerback -0.0459121 2.93584 5.5381
upperback -9.72584 4.43693 2.17396
thorax -10.0877 1.81017 -1.13102
lowerneck -12.2842 0.487345 4.84846
upperneck 17.9686 -0.993349 3.37827
head 7.57837 0.175703 0.206853
rclavicle -2.64508e-014 -3.15571e-014
rhumerus 17.545 46.3248 -56.5423
rradius 97.1981
rwrist -19.0194
rhand 7.64095 -52.2993
rfingers 7.12502
rthumb 32.8856 -799.324
lclavicle -2.64508e-014 -3.15571e-014
lhumerus -35.7224 -45.1073 94.1273
lradius 102.483
lwrist 45.5725
lhand -45.1376 -0.496899
lfingers 7.12502
lthumb -17.9161 28.6979
rfemur -1.23976 26.7598 22.5591
rtibia 1.41972
rfoot -12.1246 -18.3762
rtoes -4.046
lfemur 9.78824 -39.8006 -17.3419
ltibia -4.2327
lfoot -20.7875 52.3082
ltoes 10.9574
712
root -0.3176 17.5946 8.07004 7.45308 -7.45665 -7.4924
lowerback -0.273892 2.65974 5.35841
upperback -9.81154 4.04089 2.16569
thorax -10.079 1.63081 -1.0004
lowerneck -12.1266 0.631229 5.14847
upperneck 17.9597 -0.808037 3.19105
head 7.54782 0.264935 0.114498
rclavicle 2.08227e-014 1.65488e-014
rhumerus 18.3992 46.2532 -55.9781
rradius 101.007
rwrist -18.9139
rhand 5.95151 -48.9117
rfingers 7.12502
rthumb 31.2771 -796.26
lclavicle 2.08227e-014 1.65488e-014
lhumerus -35.8126 -44.5388 93.9735
lradius 102.316
lwrist 45.8985
lhand -45.4842 -0.218311
lfingers 7.12502
lthumb -18.2495 28.9456
rfemur -1.31469 27.1548 22.2971
rtibia 1.2609
rfoot -12.3279 -19.2366
rtoes -3.70976
lfemur 9.20201 -39.8302 -17.1075
ltibia -4.18636
lfoot -20.4733 51.8497
ltoes 10.9451
713
root -0.320149 17.5946 8.07242 7.50244 -6.90128 -7.48192
lowerback -0.315121 2.38802 5.30235
upperback -9.88038 3.68078 2.25962
thorax -10.1612 1.46138 -0.841184
lowerneck -11.9746 0.767727 5.382
upperneck 18.003 -0.622329 3.00964
head 7.53621 0.35232 0.0350487
rclavicle 7.86442e-015 4.16205e-014
rhumerus 19.243 46.6325 -54.8043
rradius 104.336
rwrist -17.0913
rhand 10.1297 -46.1781
rfingers 7.12502
rthumb 35.2494 -792.676
lclavicle 7.86442e-015 4.16205e-014
lhumerus -35.73 -43.909 93.878
lradius 102.154
lwrist 46.1848
lhand -45.5827 0.23489
lfingers 7.12502
lthumb -18.3443 29.3899
rfemur -1.18626 27.3614 22.3652
rtibia 1.12308
rfoot -12.5189 -19.9634
rtoes -3.32718
lfemur 8.92958 -39.9902 -16.8624
ltibia -4.20692
lfoot -20.0969 51.5189
ltoes 10.7724
